<svg version="1.1" xmlns="http://www.w3.org/2000/svg" width="32" height="32" viewBox="0 0 32 32">
<title>brend</title>
<path fill="#d52b2b" d="M30.816 25.595l-1.396 0.347-2.055-4.496-0.642-5.749 0.955 0.136c0.065 0.005 0.125 0.011 0.19 0.011 0.001 0 0.003 0 0.004 0 0.726 0 1.314-0.588 1.314-1.314 0-0.66-0.487-1.207-1.122-1.3l-0.007-0.001-1.186-0.168v-10.489c-0.004-1.421-1.156-2.571-2.577-2.571-0.005 0-0.010 0-0.015 0h-21.694c-0.003 0-0.007 0-0.012 0-1.419 0-2.569 1.15-2.569 2.569 0 1.24 0.879 2.275 2.048 2.516l0.017 0.003v26.772h20.643l0.041 0.141 0.994-0.282-0.89-3.086 0.29-0.070 6.992-1.741 0.884 2.631 0.976-0.325zM26.831 14.096l1.068 0.152c0.085 0.012 0.157 0.060 0.2 0.129l0.001 0.001c0.028 0.043 0.044 0.096 0.044 0.152 0 0.158-0.128 0.285-0.285 0.285-0.016 0-0.032-0.001-0.048-0.004l-1.083-0.152zM24.276 1.025c0.853 0.002 1.543 0.693 1.546 1.546v9.166l-1.030-0.602v-7.024h-0.521c0 0-0.001 0-0.001 0-0.852 0-1.543-0.691-1.543-1.543s0.69-1.542 1.542-1.543v0zM18.999 13.559l-2.487-0.353-0.228-0.456c-0.033-0.066-0.066-0.121-0.101-0.174l0.004 0.006 9.62 1.367-0.096 0.564-1.6-0.228zM20.017 15.327l-0.955 0.949-1.611-1.199-0.38-0.754 2.576 0.363zM14.306 11.33l-1.665 0.548c-0.081 0.011-0.163 0.022-0.242 0.038 0-0.033-0.005-0.065-0.005-0.098 0-1.104 0.389-2.117 1.037-2.91l-0.007 0.008c0.431 0.528 0.75 1.165 0.911 1.862l0.006 0.031c0 0.005 0 0.011-0.005 0.016-0.023 0.101-0.036 0.216-0.036 0.334 0 0.060 0.003 0.119 0.010 0.177l-0.001-0.007zM13.080 13.717l0.081 0.64c-0.275-0.409-0.492-0.885-0.622-1.395l-0.007-0.032c0.072-0.011 0.146-0.016 0.217-0.027l0.345 0.342c-0.016 0.086-0.025 0.185-0.025 0.287 0 0.065 0.004 0.13 0.011 0.193l-0.001-0.008zM12.692 15.441c-0.782 0.625-1.786 1.003-2.878 1.003-0.001 0-0.002 0-0.002 0v0c-0.317-0.001-0.626-0.033-0.926-0.092l0.031 0.005c0.357-1.41 1.329-2.541 2.607-3.107l0.029-0.012c0.225 0.851 0.621 1.589 1.151 2.21l-0.006-0.008zM11.385 12.198c-1.7 0.654-2.979 2.064-3.441 3.806l-0.009 0.039c-1.636-0.737-2.754-2.353-2.754-4.23 0-2.555 2.071-4.626 4.626-4.626 1.095 0 2.101 0.38 2.893 1.016l-0.009-0.007c-0.826 0.97-1.329 2.238-1.329 3.623v0c0 0.125 0.016 0.249 0.022 0.38zM8.787 17.372c0.309 0.060 0.665 0.095 1.029 0.098h0.002c0.001 0 0.002 0 0.003 0 1.362 0 2.611-0.481 3.587-1.282l-0.010 0.008 0.060 0.488 3.639 3.618c-0.858 1.098-2.182 1.796-3.669 1.796-2.559 0-4.635-2.070-4.645-4.627v-0.001c0-0.033 0.005-0.065 0.005-0.098zM14.167 8.195c0.782-0.626 1.786-1.004 2.878-1.004 1.267 0 2.416 0.51 3.252 1.335v0l-0.613-0.358-4.361 1.578c-0.071 0.031-0.132 0.064-0.189 0.101l0.005-0.003c-0.24-0.634-0.568-1.18-0.975-1.656l0.006 0.008zM15.344 11.075c0.044-0.17 0.167-0.304 0.327-0.362l0.004-0.001 3.905-1.41 5.765 3.346 0.022 0.201-6.076-0.862-0.42-0.732-2.186 0.358-1.307-0.184c-0.031-0.065-0.049-0.141-0.049-0.221 0-0.047 0.006-0.092 0.018-0.135l-0.001 0.004zM1.036 2.571c0.002-0.853 0.693-1.543 1.546-1.546h19.643c-0.328 0.423-0.527 0.961-0.53 1.545v0.001c0.002 0.583 0.201 1.119 0.535 1.546l-0.004-0.006h-19.643c0 0 0 0-0.001 0-0.852 0-1.544-0.689-1.549-1.54v0zM21.57 27.894l0.844 2.934h-19.314v-25.692h20.664v5.402l-1.462-0.846c-0.873-2.086-2.897-3.526-5.258-3.526-1.377 0-2.639 0.489-3.622 1.304l0.009-0.008c-0.976-0.823-2.248-1.323-3.637-1.323-3.126 0-5.66 2.534-5.66 5.66 0 2.397 1.49 4.447 3.595 5.272l0.038 0.013c-0.008 0.13-0.018 0.255-0.018 0.385 0.018 3.125 2.555 5.65 5.682 5.65 1.77 0 3.35-0.809 4.392-2.077l0.008-0.010 0.428 0.423 3.504 2.994 1.047 3.13zM26.193 26.744l-2.37 0.586-1.166-3.477-3.694-3.151-4.523-4.496-0.328-2.62c-0.003-0.024-0.005-0.052-0.005-0.081 0-0.062 0.009-0.122 0.025-0.179l-0.001 0.005 0.024-0.060c0.049-0.127 0.132-0.232 0.237-0.308l0.002-0.001c0.104-0.065 0.231-0.103 0.366-0.103 0.199 0 0.379 0.083 0.507 0.217v0c0.037 0.039 0.068 0.083 0.091 0.133l0.001 0.003 1.278 2.538 2.522 1.882 2.144-2.132-0.36-0.629 4.719 0.673 0.682 6.091 2.054 4.556z"></path>
</svg>
