<svg version="1.1" xmlns="http://www.w3.org/2000/svg" width="32" height="32" viewBox="0 0 32 32">
<title>project</title>
<path fill="#37b5c2" d="M32 19.733v-19.2c0.001-0.010 0.001-0.021 0.001-0.033 0-0.277-0.224-0.501-0.501-0.501-0.012 0-0.023 0-0.035 0.001h-30.931c-0.010-0.001-0.021-0.001-0.033-0.001-0.277 0-0.501 0.224-0.501 0.501 0 0.012 0 0.023 0.001 0.035v-0.002 25.067c-0.001 0.010-0.001 0.021-0.001 0.033 0 0.277 0.224 0.501 0.501 0.501 0.012 0 0.023 0 0.035-0.001h5.331v-1.067h-4.8v-24h29.867v18.133h-5.333c-0.010-0.001-0.021-0.001-0.033-0.001-0.277 0-0.501 0.224-0.501 0.501 0 0.012 0 0.023 0.001 0.035v-0.002 5.333h-11.733v1.067h12.267c0.005 0 0.010 0 0.015 0 0.142 0 0.27-0.062 0.358-0.16v0l5.867-5.867c0.053-0.053 0.053-0.107 0.107-0.16v-0.053c0.034-0.035 0.055-0.083 0.055-0.136 0-0.008-0.001-0.017-0.002-0.025v0.001zM26.133 20.267h4.053l-4.053 4.053v-4.053zM10.080 5.173c-0.057-0.215-0.25-0.371-0.48-0.371s-0.423 0.156-0.479 0.368l-1.548 4.643c-0.057 0.092-0.095 0.2-0.106 0.317v21.336c-0.001 0.010-0.001 0.021-0.001 0.033 0 0.277 0.224 0.501 0.501 0.501 0.012 0 0.023 0 0.035-0.001h3.198c0.010 0.001 0.021 0.001 0.033 0.001 0.277 0 0.501-0.224 0.501-0.501 0-0.012 0-0.023-0.001-0.035v0.002-21.333c-0.003-0.12-0.042-0.231-0.108-0.322l0.001 0.002zM8.533 10.667h0.533v16.533h-0.533v-16.533zM10.133 10.667h0.533v16.533h-0.533v-16.533zM9.6 7.040l0.853 2.56h-1.707zM10.667 30.933h-2.133v-2.667h2.133v2.667zM18.667 3.2c-0.006 0-0.014 0-0.021 0-2.639 0-4.779 2.139-4.779 4.779 0 0.008 0 0.015 0 0.023v-0.001 1.067h1.067v-1.067c0-2.062 1.671-3.733 3.733-3.733s3.733 1.671 3.733 3.733v0 1.067h1.067v-1.067c0-0.006 0-0.014 0-0.021 0-2.639-2.139-4.779-4.779-4.779-0.008 0-0.015 0-0.023 0h0.001zM28.8 8.533v-1.067h-1.067v1.067c0 2.062-1.671 3.733-3.733 3.733s-3.733-1.671-3.733-3.733v0-1.067h-1.067v1.067c0 2.651 2.149 4.8 4.8 4.8s4.8-2.149 4.8-4.8v0zM13.333 17.6v5.333c-0.001 0.010-0.001 0.021-0.001 0.033 0 0.277 0.224 0.501 0.501 0.501 0.012 0 0.023 0 0.035-0.001h5.331c0.010 0.001 0.021 0.001 0.033 0.001 0.277 0 0.501-0.224 0.501-0.501 0-0.012 0-0.023-0.001-0.035v0.002-5.333c0.001-0.010 0.001-0.021 0.001-0.033 0-0.277-0.224-0.501-0.501-0.501-0.012 0-0.023 0-0.035 0.001h-5.331c-0.010-0.001-0.021-0.001-0.033-0.001-0.277 0-0.501 0.224-0.501 0.501 0 0.012 0 0.023 0.001 0.035v-0.002zM14.4 18.133h4.267v4.267h-4.267v-4.267zM20.8 18.667v1.067h1.067c0.010 0.001 0.021 0.001 0.033 0.001 0.277 0 0.501-0.224 0.501-0.501 0-0.012 0-0.023-0.001-0.035v0.002-4.267c0.001-0.010 0.001-0.021 0.001-0.033 0-0.277-0.224-0.501-0.501-0.501-0.012 0-0.023 0-0.035 0.001h-4.265c-0.010-0.001-0.021-0.001-0.033-0.001-0.277 0-0.501 0.224-0.501 0.501 0 0.012 0 0.023 0.001 0.035v-0.002 1.067h1.067v-0.533h3.2v3.2h-0.533zM3.2 2.667h1.067v1.067h-1.067v-1.067zM5.333 2.667h1.067v1.067h-1.067v-1.067zM7.467 2.667h1.067v1.067h-1.067v-1.067zM5.333 4.8h1.067v1.067h-1.067v-1.067zM3.2 4.8h1.067v1.067h-1.067v-1.067zM3.2 6.933h1.067v1.067h-1.067v-1.067zM3.2 9.067h1.067v1.067h-1.067v-1.067zM3.2 11.2h1.067v1.067h-1.067v-1.067zM3.2 13.333h1.067v1.067h-1.067v-1.067zM3.2 15.467h1.067v1.067h-1.067v-1.067zM3.2 17.6h1.067v1.067h-1.067v-1.067zM3.2 19.733h1.067v1.067h-1.067v-1.067zM3.2 21.867h1.067v1.067h-1.067v-1.067z"></path>
</svg>
