<?xml version="1.0" encoding="UTF-8"?>
<!DOCTYPE svg PUBLIC "-//W3C//DTD SVG 1.1//EN" "http://www.w3.org/Graphics/SVG/1.1/DTD/svg11.dtd">
<!-- Creator: CorelDRAW X8 -->
<svg xmlns="http://www.w3.org/2000/svg" xml:space="preserve" width="79.7057mm" height="12.8288mm" version="1.1" style="shape-rendering:geometricPrecision; text-rendering:geometricPrecision; image-rendering:optimizeQuality; fill-rule:evenodd; clip-rule:evenodd"
viewBox="0 0 6124 986"
 xmlns:xlink="http://www.w3.org/1999/xlink">
 <defs>
  <style type="text/css">
   <![CDATA[
    .str1 {stroke:black;stroke-width:15.366}
    .str2 {stroke:black;stroke-width:5.85444}
    .str0 {stroke:#579CA3;stroke-width:5.85444}
    .str3 {stroke:white;stroke-width:5.85444}
    .fil6 {fill:none}
    .fil0 {fill:black}
    .fil2 {fill:#549EA3}
    .fil5 {fill:#579CA3}
    .fil1 {fill:#AB1A1A}
    .fil4 {fill:#FFFFFC}
    .fil3 {fill:white}
   ]]>
  </style>
 </defs>
 <g id="Слой_x0020_1">
  <metadata id="CorelCorpID_0Corel-Layer"/>
  <g id="_1763018966480">
   <polygon class="fil0" points="3387,728 2855,727 2857,409 2643,409 2642,942 3387,942 "/>
   <polygon class="fil1" points="2644,304 2858,304 2858,90 2644,90 "/>
   <path class="fil0" d="M214 728l105 0 0 -527 214 -1 1 527 104 -1 1 -317 209 0 4 322c0,273 -187,211 -628,211 -158,0 -224,-37 -224,-198l0 -654 215 0 -1 638z"/>
   <polygon class="fil2 str0" points="5373,304 5635,304 5636,941 5854,941 5855,305 6120,304 6121,91 5374,90 "/>
   <polygon class="fil0" points="1164,623 1476,624 1475,409 950,409 946,942 1691,938 1691,728 1164,727 "/>
   <polygon class="fil0" points="2540,728 2008,727 2010,409 1796,409 1795,942 2540,942 "/>
   <polygon class="fil1" points="947,304 1691,304 1691,95 947,90 "/>
   <polygon class="fil1" points="852,304 638,304 638,91 852,90 "/>
   <polygon class="fil1" points="1795,304 2010,304 2010,90 1796,90 "/>
   <path class="fil3" d="M5077 694c49,-30 77,-113 79,-176l-96 5c-46,79 -76,128 17,171z"/>
   <path class="fil3" d="M4632 340l-58 -62c-36,29 -98,149 -68,178 27,26 76,9 92,-9 20,-21 32,-76 34,-107z"/>
   <path class="fil3" d="M5027 327c-3,55 16,92 32,134l86 2c2,-3 4,-12 4,-10 3,15 10,-113 -59,-170 -44,17 -33,17 -63,44z"/>
   <path class="fil3" d="M4544 518c-81,6 -15,-4 -43,17 7,41 29,120 69,157 103,-24 68,-96 27,-168 -26,-5 -26,-9 -53,-6z"/>
   <path class="fil3" d="M5028 762c-19,-131 -160,-77 -174,-16 -28,127 111,35 174,16z"/>
   <path class="fil3" d="M4627 744c20,22 144,99 169,57 51,-85 -61,-121 -122,-120 -25,27 -33,25 -47,63z"/>
   <path class="fil3" d="M4960 592c37,-37 35,-42 43,-99 -47,1 -59,-10 -75,38 -17,50 6,47 32,61z"/>
   <path class="fil3" d="M4653 466l63 6 23 -67c-17,-13 -25,-20 -42,-33 -35,29 -37,48 -44,94z"/>
   <path class="fil3" d="M5003 471c-4,-23 -3,-35 -13,-57 -13,-30 -18,-28 -30,-39 -26,13 -49,11 -32,61 16,47 30,34 75,35z"/>
   <path class="fil3" d="M4719 353c38,61 96,50 98,-45 -21,3 -41,4 -60,12 -44,19 -28,21 -38,33z"/>
   <path class="fil4" d="M4719 614c25,35 47,37 98,45 -2,-80 -2,-64 -69,-84l-29 39z"/>
   <path class="fil4" d="M4840 659c53,-10 65,-8 97,-45 -17,-25 -18,-45 -59,-32 -47,15 -37,34 -38,77z"/>
   <path class="fil4" d="M4681 594c31,-14 36,-20 55,-35 -15,-46 -8,-38 -36,-66l-48 5 29 96z"/>
   <path class="fil4" d="M4906 390c14,-19 19,-24 32,-52l-97 -34c1,80 2,66 65,86z"/>
   <path class="fil5 str0" d="M4239 303l-216 3 1 100 0 -50 -1 -50 216 -3c0,44 0,85 -14,134 -8,16 -18,30 -35,45 -15,13 -29,22 -52,32 -2,1 -1,10 -3,11l-112 97 0 -215 0 -50 0 -51 -531 -1 0 -216 533 0c194,-2 206,66 214,214z"/>
   <path class="fil5" d="M4239 727l-4 0 -530 0 1 -104 318 1 0 103 215 0c0,-44 0,-84 -14,-134 -8,-16 -18,-30 -35,-45 -15,-12 -33,-25 -55,-35 -2,-1 -15,13 -17,12l-90 83 -5 15 8 -18 -8 -197 -530 0 -1 533 533 0c194,2 206,-65 214,-214z"/>
   <polygon class="fil0 str1" points="4854,8 4905,14 4854,496 4803,490 "/>
   <polygon class="fil0 str1" points="4716,21 4767,12 4854,488 4804,497 "/>
   <polygon class="fil0 str1" points="4588,72 4634,49 4852,481 4806,504 "/>
   <polygon class="fil0 str1" points="4479,157 4517,122 4848,475 4810,510 "/>
   <polygon class="fil0 str1" points="4399,269 4425,224 4842,471 4816,515 "/>
   <polygon class="fil0 str1" points="4353,399 4366,349 4835,468 4822,518 "/>
   <polygon class="fil0 str1" points="4346,537 4344,485 4828,467 4830,519 "/>
   <polygon class="fil0 str1" points="4378,671 4361,622 4821,468 4837,517 "/>
   <polygon class="fil0 str1" points="4446,791 4417,749 4814,472 4843,514 "/>
   <polygon class="fil0 str1" points="4546,887 4506,854 4809,477 4849,509 "/>
   <polygon class="fil0 str1" points="4668,950 4621,931 4805,483 4853,503 "/>
   <polygon class="fil0 str1" points="4803,977 4752,972 4803,490 4854,496 "/>
   <polygon class="fil0 str1" points="4941,965 4890,974 4803,497 4854,488 "/>
   <polygon class="fil0 str1" points="5069,914 5023,937 4806,504 4852,481 "/>
   <polygon class="fil0 str1" points="5178,829 5141,864 4810,510 4848,475 "/>
   <polygon class="fil0 str1" points="5259,717 5233,761 4816,515 4842,471 "/>
   <polygon class="fil0 str1" points="5305,587 5292,637 4822,518 4835,468 "/>
   <polygon class="fil0 str1" points="5312,449 5314,501 4830,519 4828,467 "/>
   <polygon class="fil0 str1" points="5280,315 5296,364 4837,517 4821,468 "/>
   <polygon class="fil0 str1" points="5212,195 5241,237 4843,514 4814,472 "/>
   <polygon class="fil0 str1" points="5112,99 5152,131 4849,509 4809,477 "/>
   <polygon class="fil0 str1" points="4990,35 5037,55 4853,503 4805,483 "/>
   <polygon class="fil0 str1" points="4854,8 4906,14 4854,496 4803,490 "/>
   <polygon class="fil6 str2" points="5041,479 5189,479 5189,513 5041,513 "/>
   <path class="fil0 str2" d="M4828 70c233,0 422,189 422,423 0,233 -189,423 -422,423 -234,0 -423,-190 -423,-423 0,-234 189,-423 423,-423z"/>
   <path class="fil3 str3" d="M4828 161c183,0 332,148 332,332 0,183 -149,332 -332,332 -184,0 -333,-149 -333,-332 0,-184 149,-332 333,-332z"/>
   <path class="fil0 str2" d="M4827 265c128,0 231,103 231,231 0,127 -103,230 -231,230 -127,0 -230,-103 -230,-230 0,-128 103,-231 230,-231z"/>
   <polygon class="fil0 str1" points="4562,262 4598,226 4847,475 4811,511 "/>
   <polygon class="fil0 str1" points="4477,519 4477,467 4829,467 4829,519 "/>
   <polygon class="fil0 str1" points="4598,760 4562,723 4811,475 4847,511 "/>
   <polygon class="fil0 str1" points="4855,845 4803,845 4803,493 4855,493 "/>
   <polygon class="fil0 str1" points="5096,723 5059,760 4811,511 4847,475 "/>
   <polygon class="fil0 str1" points="5181,467 5181,519 4829,519 4829,467 "/>
   <polygon class="fil0 str1" points="5059,226 5096,262 4847,511 4811,475 "/>
   <polygon class="fil0 str1" points="4803,141 4855,141 4855,493 4803,493 "/>
   <polygon class="fil0 str1" points="4562,262 4598,226 4847,475 4811,511 "/>
   <polygon class="fil0 str1" points="4477,519 4477,467 4829,467 4829,519 "/>
   <polygon class="fil0 str1" points="4598,760 4562,723 4811,475 4847,511 "/>
   <polygon class="fil0 str1" points="4855,845 4803,845 4803,493 4855,493 "/>
   <polygon class="fil0 str1" points="5096,723 5059,760 4811,511 4847,475 "/>
   <polygon class="fil0 str1" points="5181,467 5181,519 4829,519 4829,467 "/>
   <polygon class="fil0 str1" points="5059,226 5096,262 4847,511 4811,475 "/>
   <polygon class="fil0 str1" points="4803,141 4855,141 4855,493 4803,493 "/>
   <polygon class="fil0 str1" points="4562,262 4598,226 4847,475 4811,511 "/>
   <polygon class="fil0 str1" points="4477,519 4477,467 4829,467 4829,519 "/>
   <polygon class="fil0 str1" points="4598,760 4562,723 4811,475 4847,511 "/>
   <polygon class="fil0 str1" points="4855,845 4803,845 4803,493 4855,493 "/>
   <polygon class="fil0 str1" points="5096,723 5059,760 4811,511 4847,475 "/>
   <polygon class="fil0 str1" points="5181,467 5181,519 4829,519 4829,467 "/>
   <polygon class="fil0 str1" points="5059,226 5096,262 4847,511 4811,475 "/>
   <polygon class="fil0 str1" points="4803,141 4855,141 4855,493 4803,493 "/>
   <polygon class="fil0 str1" points="4562,262 4598,226 4847,475 4811,511 "/>
   <polygon class="fil0 str1" points="4477,519 4477,467 4829,467 4829,519 "/>
   <polygon class="fil0 str1" points="4598,760 4562,723 4811,475 4847,511 "/>
   <polygon class="fil0 str1" points="4855,845 4803,845 4803,493 4855,493 "/>
   <polygon class="fil0 str1" points="5096,723 5059,760 4811,511 4847,475 "/>
   <path class="fil3 str3" d="M4829 315c98,0 178,79 178,178 0,98 -80,178 -178,178 -99,0 -179,-80 -179,-178 0,-99 80,-178 179,-178z"/>
   <path class="fil0 str2" d="M4827 381c62,0 112,50 112,112 0,61 -50,111 -112,111 -61,0 -111,-50 -111,-111 0,-62 50,-112 111,-112z"/>
   <polygon class="fil0 str1" points="4815,298 4842,298 4842,493 4815,493 "/>
   <polygon class="fil0 str1" points="4682,365 4701,346 4838,483 4819,502 "/>
   <polygon class="fil0 str1" points="4634,506 4634,479 4829,479 4829,506 "/>
   <polygon class="fil0 str1" points="4701,640 4682,621 4819,483 4838,502 "/>
   <polygon class="fil0 str1" points="4842,687 4815,687 4815,493 4842,493 "/>
   <polygon class="fil0 str1" points="4976,621 4957,640 4819,502 4838,483 "/>
   <polygon class="fil0 str1" points="5023,479 5023,506 4829,506 4829,479 "/>
   <polygon class="fil0 str1" points="4957,346 4976,365 4838,502 4819,483 "/>
  </g>
 </g>
</svg>
