<svg style="position: absolute; width: 0; height: 0; overflow: hidden;" version="1.1" xmlns="http://www.w3.org/2000/svg" xmlns:xlink="http://www.w3.org/1999/xlink">
<defs>
<symbol id="icon-vk" viewBox="0 0 39 32">
<title>vk</title>
<path fill="#507299" d="M0 6.272q0.32-0.256 0.8-0.384 0.448-0.128 0.8-0.128h0.288q0.32 0 0.768 0.032 0.704 0.032 1.024 0.032 0.192 0 1.216-0.064 0.512-0.032 0.928-0.032t0.736 0.032q0.64 0.064 1.024 0.256 0.192 0.096 0.416 0.416t0.384 0.608 0.352 0.8 0.32 0.704q1.216 2.624 3.008 5.216 0.064 0.096 0.224 0.352t0.288 0.384 0.288 0.384 0.32 0.352 0.352 0.256 0.352 0.192 0.384 0q0.896-0.16 0.992-3.744 0.032-0.608 0.032-1.12 0-2.368-0.48-3.264-0.192-0.352-0.48-0.576t-0.8-0.384-0.736-0.32q0.448-0.896 1.6-1.184t3.072-0.288h1.696t0.832 0 0.864 0.096l0.704 0.192t0.64 0.288 0.384 0.448q0.288 0.576 0.352 1.344 0 0.224 0.032 0.448 0 0.64-0.096 1.664-0.128 1.344-0.128 1.664-0.096 0.736-0.096 1.472 0 0.576 0.064 1.216 0.128 1.408 0.96 1.952 0.288-0.032 0.544-0.128t0.48-0.352 0.352-0.384 0.416-0.512 0.32-0.448q1.504-1.984 3.008-5.216l0.288-0.736t0.384-0.832 0.384-0.64 0.48-0.416q0.512-0.224 1.216-0.224h0.288q0.64 0 1.472 0.064 1.024 0.064 1.504 0.064 0.288 0 0.896-0.032t1.024-0.064 0.96 0.032 0.8 0.192 0.448 0.416q0.096 0.192 0.096 0.416 0 0.928-1.12 2.784-0.544 0.928-1.088 1.664t-1.472 1.856-1.184 1.504q-0.064 0.064-0.448 0.576t-0.544 0.768-0.384 0.704-0.16 0.864q0 0.256 0.096 0.48t0.32 0.48 0.32 0.384 0.416 0.416 0.384 0.352q2.272 2.080 3.584 3.744 1.28 1.664 1.28 2.4 0 1.056-1.632 1.312-0.832 0.128-1.696 0.128-0.672 0-1.376-0.096-0.64-0.064-1.184-0.064-0.832 0-1.44 0.16h-0.192q-2.112-0.352-4.448-3.008-0.128-0.128-0.544-0.672t-0.704-0.8-0.736-0.544-0.864-0.192q-0.736 0.128-0.96 0.928t-0.288 1.888-0.32 1.568q-0.416 0.768-2.528 0.768-0.896 0-2.112-0.128-2.496-0.256-4.512-1.28t-3.232-2.176-2.592-2.944q-3.328-4.256-6.304-10.304-0.096-0.192-0.352-0.736t-0.384-0.8-0.288-0.768-0.256-0.896-0.096-0.832z"></path>
</symbol>
<symbol id="icon-twitter" viewBox="0 0 39 32">
<title>twitter</title>
<path fill="#1DA1F2" d="M39.392 3.776q-1.632 2.464-4.032 4.192 0.032 0.448 0.032 1.024 0 3.264-0.96 6.496-0.928 3.264-2.88 6.24-1.952 2.944-4.64 5.248t-6.432 3.648q-3.776 1.376-8.096 1.376-6.72 0-12.384-3.616 0.992 0.096 1.92 0.096 5.632 0 10.048-3.456-2.624-0.064-4.704-1.632-2.048-1.568-2.848-4 0.768 0.16 1.536 0.16 1.088 0 2.112-0.288-2.784-0.544-4.64-2.784-1.824-2.208-1.824-5.12v-0.128q1.696 0.96 3.648 1.024-1.664-1.088-2.624-2.88-0.96-1.76-0.96-3.84 0-2.176 1.088-4.064 3.040 3.744 7.36 5.952 4.32 2.24 9.28 2.496-0.192-0.896-0.192-1.856 0-3.328 2.368-5.696t5.696-2.368q3.52 0 5.92 2.56 2.72-0.544 5.12-1.984-0.928 2.912-3.552 4.48 2.432-0.288 4.64-1.28z"></path>
</symbol>
<symbol id="icon-instagram" viewBox="0 0 32 32">
<title>instagram</title>
<path fill="#9E6F4F" d="M19.328 16.352c0-1.728-1.44-3.136-3.168-3.136s-3.136 1.408-3.136 3.136c0 1.728 1.408 3.136 3.136 3.136s3.168-1.408 3.168-3.136zM24 0.032h-16c-4.384 0-7.968 3.552-7.968 7.936v2.208h11.744c1.248-0.864 2.752-1.376 4.384-1.376s3.168 0.512 4.384 1.376h11.456v-2.208c0-4.384-3.584-7.936-8-7.936zM27.232 7.584c0 0.48-0.384 0.896-0.896 0.896h-2.72c-0.512 0-0.896-0.416-0.896-0.896v-2.72c0-0.512 0.384-0.896 0.896-0.896h2.72c0.512 0 0.896 0.384 0.896 0.896v2.72zM23.744 16.352c0 4.16-3.392 7.552-7.584 7.552s-7.584-3.392-7.584-7.552c0-1.152 0.256-2.24 0.736-3.232h-9.28v10.912c0 4.384 3.584 7.936 7.968 7.936h16c4.416 0 8-3.552 8-7.936v-10.912h-8.96c0.448 0.992 0.704 2.080 0.704 3.232z"></path>
</symbol>
<symbol id="icon-phone" viewBox="0 0 15 32">
<title>phone</title>
<path d="M4.103 30.326c-0.492-0.475-0.903-1.030-1.215-1.644l-0.016-0.035c-1.835-3.668-2.909-7.991-2.909-12.565s1.074-8.897 2.984-12.731l-0.075 0.166c1.048-2.129 3.202-3.569 5.693-3.569 0.217 0 0.431 0.011 0.642 0.032l-0.027-0.002 1.675 0.171c0.955 0.1 1.8 0.51 2.446 1.126l-0.002-0.002c0.789 0.766 1.279 1.837 1.279 3.023 0 0.44-0.068 0.865-0.193 1.264l0.008-0.030-1.453 4.746c-0.36 1.183-1.402 2.046-2.657 2.136l-0.010 0.001-0.684 0.051c-0.703 0.062-1.279 0.54-1.484 1.185l-0.003 0.012c-0.223 0.701-0.351 1.507-0.351 2.344 0 0.915 0.154 1.794 0.437 2.612l-0.017-0.056c0.225 0.639 0.819 1.091 1.52 1.099h0.685c1.253 0.023 2.312 0.827 2.712 1.945l0.006 0.020 1.573 4.65c0.138 0.404 0.218 0.87 0.218 1.354 0 2.318-1.83 4.208-4.124 4.304h-0.009l-2.171 0.085c-0.069 0.003-0.15 0.004-0.231 0.004-1.646 0-3.142-0.643-4.251-1.691l0.003 0.003zM11.522 3.123c-0.256-0.246-0.593-0.41-0.968-0.447l-0.007-0.001-1.658-0.171c-0.111-0.012-0.239-0.018-0.369-0.018-1.476 0-2.752 0.852-3.365 2.090l-0.010 0.022c-1.675 3.339-2.655 7.276-2.655 11.443s0.98 8.103 2.723 11.593l-0.068-0.15c0.623 1.194 1.853 1.995 3.269 1.995 0.041 0 0.081-0.001 0.122-0.002h-0.006l2.171-0.082c0.917-0.034 1.648-0.786 1.648-1.708 0-0.199-0.034-0.39-0.096-0.567l0.004 0.012-1.556-4.65c-0.069-0.155-0.217-0.263-0.392-0.273h-0.702c-1.772-0.040-3.267-1.177-3.837-2.757l-0.009-0.029c-0.349-1.001-0.55-2.154-0.55-3.355 0-1.103 0.17-2.166 0.485-3.164l-0.020 0.074c0.518-1.667 1.979-2.883 3.745-3.032l0.016-0.001 0.701-0.051c0.108-0.007 0.204-0.056 0.273-0.13v0c0.048-0.045 0.084-0.103 0.102-0.168l0.001-0.003 1.453-4.754c0.050-0.151 0.078-0.324 0.078-0.504 0-0.477-0.201-0.907-0.522-1.21l-0.001-0.001z"></path>
</symbol>
<symbol id="icon-cross" viewBox="0 0 32 32">
<title>cross</title>
<path fill="#9d1616" style="fill: var(--color1, #9d1616)" d="M27.316 4.684c-2.896-2.897-6.896-4.688-11.316-4.688-8.837 0-16 7.163-16 16s7.163 16 16 16c8.835 0 15.998-7.161 16-15.996v0c0-0.014 0-0.031 0-0.048 0-4.403-1.791-8.389-4.684-11.267l-0.001-0.001zM26.027 26.018c-2.566 2.567-6.112 4.156-10.028 4.156-7.83 0-14.178-6.348-14.178-14.178s6.348-14.178 14.178-14.178c3.917 0 7.462 1.588 10.028 4.155v0c2.599 2.551 4.21 6.101 4.21 10.027s-1.611 7.476-4.208 10.025l-0.002 0.002zM23.049 8.951c-0.165-0.164-0.393-0.265-0.644-0.265s-0.479 0.101-0.645 0.265l-5.76 5.76-5.76-5.76c-0.157-0.13-0.361-0.209-0.583-0.209-0.506 0-0.916 0.41-0.916 0.916 0 0.222 0.079 0.426 0.211 0.584l-0.001-0.002 5.76 5.76-5.76 5.76c-0.164 0.165-0.265 0.393-0.265 0.644s0.101 0.479 0.265 0.645v0c0.161 0.165 0.386 0.267 0.635 0.267 0.002 0 0.004 0 0.005 0v0c0.245 0 0.465-0.103 0.622-0.266v0l5.778-5.76 5.742 5.76c0.161 0.165 0.386 0.267 0.635 0.267 0.002 0 0.004 0 0.005 0v0c0.245 0 0.465-0.103 0.622-0.266v0c0.164-0.165 0.265-0.393 0.265-0.644s-0.101-0.479-0.265-0.645l-5.698-5.76 5.76-5.76c0.164-0.165 0.265-0.393 0.265-0.644s-0.101-0.479-0.265-0.645v0z"></path>
</symbol>
<symbol id="icon-arrow" viewBox="0 0 46 32">
<title>arrow</title>
<path d="M30.856 0.4c-0.294-0.3-0.703-0.485-1.155-0.485-0.893 0-1.617 0.724-1.617 1.618 0 0.441 0.176 0.841 0.463 1.132l-0-0 11.711 11.665h-38.633c-0.897 0-1.624 0.727-1.624 1.624s0.727 1.624 1.624 1.624v0h38.633l-11.711 11.643c-0.287 0.299-0.464 0.707-0.464 1.155s0.177 0.856 0.465 1.156l-0.001-0.001c0.295 0.297 0.704 0.481 1.155 0.481s0.86-0.184 1.155-0.48l0-0 14.479-14.433c0.297-0.287 0.481-0.688 0.481-1.132s-0.184-0.846-0.48-1.132l-0-0z"></path>
</symbol>
<symbol id="icon-project" viewBox="0 0 32 32">
<title>project</title>
<path fill="#37b5c2" style="fill: var(--color2, #37b5c2)" d="M32 19.733v-19.2c0.001-0.010 0.001-0.021 0.001-0.033 0-0.277-0.224-0.501-0.501-0.501-0.012 0-0.023 0-0.035 0.001h-30.931c-0.010-0.001-0.021-0.001-0.033-0.001-0.277 0-0.501 0.224-0.501 0.501 0 0.012 0 0.023 0.001 0.035v-0.002 25.067c-0.001 0.010-0.001 0.021-0.001 0.033 0 0.277 0.224 0.501 0.501 0.501 0.012 0 0.023 0 0.035-0.001h5.331v-1.067h-4.8v-24h29.867v18.133h-5.333c-0.010-0.001-0.021-0.001-0.033-0.001-0.277 0-0.501 0.224-0.501 0.501 0 0.012 0 0.023 0.001 0.035v-0.002 5.333h-11.733v1.067h12.267c0.005 0 0.010 0 0.015 0 0.142 0 0.27-0.062 0.358-0.16v0l5.867-5.867c0.053-0.053 0.053-0.107 0.107-0.16v-0.053c0.034-0.035 0.055-0.083 0.055-0.136 0-0.008-0.001-0.017-0.002-0.025v0.001zM26.133 20.267h4.053l-4.053 4.053v-4.053zM10.080 5.173c-0.057-0.215-0.25-0.371-0.48-0.371s-0.423 0.156-0.479 0.368l-1.548 4.643c-0.057 0.092-0.095 0.2-0.106 0.317v21.336c-0.001 0.010-0.001 0.021-0.001 0.033 0 0.277 0.224 0.501 0.501 0.501 0.012 0 0.023 0 0.035-0.001h3.198c0.010 0.001 0.021 0.001 0.033 0.001 0.277 0 0.501-0.224 0.501-0.501 0-0.012 0-0.023-0.001-0.035v0.002-21.333c-0.003-0.12-0.042-0.231-0.108-0.322l0.001 0.002zM8.533 10.667h0.533v16.533h-0.533v-16.533zM10.133 10.667h0.533v16.533h-0.533v-16.533zM9.6 7.040l0.853 2.56h-1.707zM10.667 30.933h-2.133v-2.667h2.133v2.667zM18.667 3.2c-0.006 0-0.014 0-0.021 0-2.639 0-4.779 2.139-4.779 4.779 0 0.008 0 0.015 0 0.023v-0.001 1.067h1.067v-1.067c0-2.062 1.671-3.733 3.733-3.733s3.733 1.671 3.733 3.733v0 1.067h1.067v-1.067c0-0.006 0-0.014 0-0.021 0-2.639-2.139-4.779-4.779-4.779-0.008 0-0.015 0-0.023 0h0.001zM28.8 8.533v-1.067h-1.067v1.067c0 2.062-1.671 3.733-3.733 3.733s-3.733-1.671-3.733-3.733v0-1.067h-1.067v1.067c0 2.651 2.149 4.8 4.8 4.8s4.8-2.149 4.8-4.8v0zM13.333 17.6v5.333c-0.001 0.010-0.001 0.021-0.001 0.033 0 0.277 0.224 0.501 0.501 0.501 0.012 0 0.023 0 0.035-0.001h5.331c0.010 0.001 0.021 0.001 0.033 0.001 0.277 0 0.501-0.224 0.501-0.501 0-0.012 0-0.023-0.001-0.035v0.002-5.333c0.001-0.010 0.001-0.021 0.001-0.033 0-0.277-0.224-0.501-0.501-0.501-0.012 0-0.023 0-0.035 0.001h-5.331c-0.010-0.001-0.021-0.001-0.033-0.001-0.277 0-0.501 0.224-0.501 0.501 0 0.012 0 0.023 0.001 0.035v-0.002zM14.4 18.133h4.267v4.267h-4.267v-4.267zM20.8 18.667v1.067h1.067c0.010 0.001 0.021 0.001 0.033 0.001 0.277 0 0.501-0.224 0.501-0.501 0-0.012 0-0.023-0.001-0.035v0.002-4.267c0.001-0.010 0.001-0.021 0.001-0.033 0-0.277-0.224-0.501-0.501-0.501-0.012 0-0.023 0-0.035 0.001h-4.265c-0.010-0.001-0.021-0.001-0.033-0.001-0.277 0-0.501 0.224-0.501 0.501 0 0.012 0 0.023 0.001 0.035v-0.002 1.067h1.067v-0.533h3.2v3.2h-0.533zM3.2 2.667h1.067v1.067h-1.067v-1.067zM5.333 2.667h1.067v1.067h-1.067v-1.067zM7.467 2.667h1.067v1.067h-1.067v-1.067zM5.333 4.8h1.067v1.067h-1.067v-1.067zM3.2 4.8h1.067v1.067h-1.067v-1.067zM3.2 6.933h1.067v1.067h-1.067v-1.067zM3.2 9.067h1.067v1.067h-1.067v-1.067zM3.2 11.2h1.067v1.067h-1.067v-1.067zM3.2 13.333h1.067v1.067h-1.067v-1.067zM3.2 15.467h1.067v1.067h-1.067v-1.067zM3.2 17.6h1.067v1.067h-1.067v-1.067zM3.2 19.733h1.067v1.067h-1.067v-1.067zM3.2 21.867h1.067v1.067h-1.067v-1.067z"></path>
</symbol>
<symbol id="icon-brend" viewBox="0 0 32 32">
<title>brend</title>
<path fill="#d52b2b" style="fill: var(--color3, #d52b2b)" d="M30.816 25.595l-1.396 0.347-2.055-4.496-0.642-5.749 0.955 0.136c0.065 0.005 0.125 0.011 0.19 0.011 0.001 0 0.003 0 0.004 0 0.726 0 1.314-0.588 1.314-1.314 0-0.66-0.487-1.207-1.122-1.3l-0.007-0.001-1.186-0.168v-10.489c-0.004-1.421-1.156-2.571-2.577-2.571-0.005 0-0.010 0-0.015 0h-21.694c-0.003 0-0.007 0-0.012 0-1.419 0-2.569 1.15-2.569 2.569 0 1.24 0.879 2.275 2.048 2.516l0.017 0.003v26.772h20.643l0.041 0.141 0.994-0.282-0.89-3.086 0.29-0.070 6.992-1.741 0.884 2.631 0.976-0.325zM26.831 14.096l1.068 0.152c0.085 0.012 0.157 0.060 0.2 0.129l0.001 0.001c0.028 0.043 0.044 0.096 0.044 0.152 0 0.158-0.128 0.285-0.285 0.285-0.016 0-0.032-0.001-0.048-0.004l-1.083-0.152zM24.276 1.025c0.853 0.002 1.543 0.693 1.546 1.546v9.166l-1.030-0.602v-7.024h-0.521c0 0-0.001 0-0.001 0-0.852 0-1.543-0.691-1.543-1.543s0.69-1.542 1.542-1.543v0zM18.999 13.559l-2.487-0.353-0.228-0.456c-0.033-0.066-0.066-0.121-0.101-0.174l0.004 0.006 9.62 1.367-0.096 0.564-1.6-0.228zM20.017 15.327l-0.955 0.949-1.611-1.199-0.38-0.754 2.576 0.363zM14.306 11.33l-1.665 0.548c-0.081 0.011-0.163 0.022-0.242 0.038 0-0.033-0.005-0.065-0.005-0.098 0-1.104 0.389-2.117 1.037-2.91l-0.007 0.008c0.431 0.528 0.75 1.165 0.911 1.862l0.006 0.031c0 0.005 0 0.011-0.005 0.016-0.023 0.101-0.036 0.216-0.036 0.334 0 0.060 0.003 0.119 0.010 0.177l-0.001-0.007zM13.080 13.717l0.081 0.64c-0.275-0.409-0.492-0.885-0.622-1.395l-0.007-0.032c0.072-0.011 0.146-0.016 0.217-0.027l0.345 0.342c-0.016 0.086-0.025 0.185-0.025 0.287 0 0.065 0.004 0.13 0.011 0.193l-0.001-0.008zM12.692 15.441c-0.782 0.625-1.786 1.003-2.878 1.003-0.001 0-0.002 0-0.002 0v0c-0.317-0.001-0.626-0.033-0.926-0.092l0.031 0.005c0.357-1.41 1.329-2.541 2.607-3.107l0.029-0.012c0.225 0.851 0.621 1.589 1.151 2.21l-0.006-0.008zM11.385 12.198c-1.7 0.654-2.979 2.064-3.441 3.806l-0.009 0.039c-1.636-0.737-2.754-2.353-2.754-4.23 0-2.555 2.071-4.626 4.626-4.626 1.095 0 2.101 0.38 2.893 1.016l-0.009-0.007c-0.826 0.97-1.329 2.238-1.329 3.623v0c0 0.125 0.016 0.249 0.022 0.38zM8.787 17.372c0.309 0.060 0.665 0.095 1.029 0.098h0.002c0.001 0 0.002 0 0.003 0 1.362 0 2.611-0.481 3.587-1.282l-0.010 0.008 0.060 0.488 3.639 3.618c-0.858 1.098-2.182 1.796-3.669 1.796-2.559 0-4.635-2.070-4.645-4.627v-0.001c0-0.033 0.005-0.065 0.005-0.098zM14.167 8.195c0.782-0.626 1.786-1.004 2.878-1.004 1.267 0 2.416 0.51 3.252 1.335v0l-0.613-0.358-4.361 1.578c-0.071 0.031-0.132 0.064-0.189 0.101l0.005-0.003c-0.24-0.634-0.568-1.18-0.975-1.656l0.006 0.008zM15.344 11.075c0.044-0.17 0.167-0.304 0.327-0.362l0.004-0.001 3.905-1.41 5.765 3.346 0.022 0.201-6.076-0.862-0.42-0.732-2.186 0.358-1.307-0.184c-0.031-0.065-0.049-0.141-0.049-0.221 0-0.047 0.006-0.092 0.018-0.135l-0.001 0.004zM1.036 2.571c0.002-0.853 0.693-1.543 1.546-1.546h19.643c-0.328 0.423-0.527 0.961-0.53 1.545v0.001c0.002 0.583 0.201 1.119 0.535 1.546l-0.004-0.006h-19.643c0 0 0 0-0.001 0-0.852 0-1.544-0.689-1.549-1.54v0zM21.57 27.894l0.844 2.934h-19.314v-25.692h20.664v5.402l-1.462-0.846c-0.873-2.086-2.897-3.526-5.258-3.526-1.377 0-2.639 0.489-3.622 1.304l0.009-0.008c-0.976-0.823-2.248-1.323-3.637-1.323-3.126 0-5.66 2.534-5.66 5.66 0 2.397 1.49 4.447 3.595 5.272l0.038 0.013c-0.008 0.13-0.018 0.255-0.018 0.385 0.018 3.125 2.555 5.65 5.682 5.65 1.77 0 3.35-0.809 4.392-2.077l0.008-0.010 0.428 0.423 3.504 2.994 1.047 3.13zM26.193 26.744l-2.37 0.586-1.166-3.477-3.694-3.151-4.523-4.496-0.328-2.62c-0.003-0.024-0.005-0.052-0.005-0.081 0-0.062 0.009-0.122 0.025-0.179l-0.001 0.005 0.024-0.060c0.049-0.127 0.132-0.232 0.237-0.308l0.002-0.001c0.104-0.065 0.231-0.103 0.366-0.103 0.199 0 0.379 0.083 0.507 0.217v0c0.037 0.039 0.068 0.083 0.091 0.133l0.001 0.003 1.278 2.538 2.522 1.882 2.144-2.132-0.36-0.629 4.719 0.673 0.682 6.091 2.054 4.556z"></path>
</symbol>
</defs>
</svg>
