<svg style="position: absolute; width: 0; height: 0; overflow: hidden;" version="1.1" xmlns="http://www.w3.org/2000/svg" xmlns:xlink="http://www.w3.org/1999/xlink">
<defs>
<symbol id="icon-phone" viewBox="0 0 15 32">
<title>phone</title>
<path d="M4.103 30.326c-0.492-0.475-0.903-1.030-1.215-1.644l-0.016-0.035c-1.835-3.668-2.909-7.991-2.909-12.565s1.074-8.897 2.984-12.731l-0.075 0.166c1.048-2.129 3.202-3.569 5.693-3.569 0.217 0 0.431 0.011 0.642 0.032l-0.027-0.002 1.675 0.171c0.955 0.1 1.8 0.51 2.446 1.126l-0.002-0.002c0.789 0.766 1.279 1.837 1.279 3.023 0 0.44-0.068 0.865-0.193 1.264l0.008-0.030-1.453 4.746c-0.36 1.183-1.402 2.046-2.657 2.136l-0.010 0.001-0.684 0.051c-0.703 0.062-1.279 0.54-1.484 1.185l-0.003 0.012c-0.223 0.701-0.351 1.507-0.351 2.344 0 0.915 0.154 1.794 0.437 2.612l-0.017-0.056c0.225 0.639 0.819 1.091 1.52 1.099h0.685c1.253 0.023 2.312 0.827 2.712 1.945l0.006 0.020 1.573 4.65c0.138 0.404 0.218 0.87 0.218 1.354 0 2.318-1.83 4.208-4.124 4.304h-0.009l-2.171 0.085c-0.069 0.003-0.15 0.004-0.231 0.004-1.646 0-3.142-0.643-4.251-1.691l0.003 0.003zM11.522 3.123c-0.256-0.246-0.593-0.41-0.968-0.447l-0.007-0.001-1.658-0.171c-0.111-0.012-0.239-0.018-0.369-0.018-1.476 0-2.752 0.852-3.365 2.090l-0.010 0.022c-1.675 3.339-2.655 7.276-2.655 11.443s0.98 8.103 2.723 11.593l-0.068-0.15c0.623 1.194 1.853 1.995 3.269 1.995 0.041 0 0.081-0.001 0.122-0.002h-0.006l2.171-0.082c0.917-0.034 1.648-0.786 1.648-1.708 0-0.199-0.034-0.39-0.096-0.567l0.004 0.012-1.556-4.65c-0.069-0.155-0.217-0.263-0.392-0.273h-0.702c-1.772-0.040-3.267-1.177-3.837-2.757l-0.009-0.029c-0.349-1.001-0.55-2.154-0.55-3.355 0-1.103 0.17-2.166 0.485-3.164l-0.020 0.074c0.518-1.667 1.979-2.883 3.745-3.032l0.016-0.001 0.701-0.051c0.108-0.007 0.204-0.056 0.273-0.13v0c0.048-0.045 0.084-0.103 0.102-0.168l0.001-0.003 1.453-4.754c0.050-0.151 0.078-0.324 0.078-0.504 0-0.477-0.201-0.907-0.522-1.21l-0.001-0.001z"></path>
</symbol>
<symbol id="icon-cross" viewBox="0 0 32 32">
<title>cross</title>
<path fill="#9d1616" style="fill: var(--color1, #9d1616)" d="M27.316 4.684c-2.896-2.897-6.896-4.688-11.316-4.688-8.837 0-16 7.163-16 16s7.163 16 16 16c8.835 0 15.998-7.161 16-15.996v0c0-0.014 0-0.031 0-0.048 0-4.403-1.791-8.389-4.684-11.267l-0.001-0.001zM26.027 26.018c-2.566 2.567-6.112 4.156-10.028 4.156-7.83 0-14.178-6.348-14.178-14.178s6.348-14.178 14.178-14.178c3.917 0 7.462 1.588 10.028 4.155v0c2.599 2.551 4.21 6.101 4.21 10.027s-1.611 7.476-4.208 10.025l-0.002 0.002zM23.049 8.951c-0.165-0.164-0.393-0.265-0.644-0.265s-0.479 0.101-0.645 0.265l-5.76 5.76-5.76-5.76c-0.157-0.13-0.361-0.209-0.583-0.209-0.506 0-0.916 0.41-0.916 0.916 0 0.222 0.079 0.426 0.211 0.584l-0.001-0.002 5.76 5.76-5.76 5.76c-0.164 0.165-0.265 0.393-0.265 0.644s0.101 0.479 0.265 0.645v0c0.161 0.165 0.386 0.267 0.635 0.267 0.002 0 0.004 0 0.005 0v0c0.245 0 0.465-0.103 0.622-0.266v0l5.778-5.76 5.742 5.76c0.161 0.165 0.386 0.267 0.635 0.267 0.002 0 0.004 0 0.005 0v0c0.245 0 0.465-0.103 0.622-0.266v0c0.164-0.165 0.265-0.393 0.265-0.644s-0.101-0.479-0.265-0.645l-5.698-5.76 5.76-5.76c0.164-0.165 0.265-0.393 0.265-0.644s-0.101-0.479-0.265-0.645v0z"></path>
</symbol>
<symbol id="icon-arrow" viewBox="0 0 46 32">
<title>arrow</title>
<path d="M30.856 0.4c-0.294-0.3-0.703-0.485-1.155-0.485-0.893 0-1.617 0.724-1.617 1.618 0 0.441 0.176 0.841 0.463 1.132l-0-0 11.711 11.665h-38.633c-0.897 0-1.624 0.727-1.624 1.624s0.727 1.624 1.624 1.624v0h38.633l-11.711 11.643c-0.287 0.299-0.464 0.707-0.464 1.155s0.177 0.856 0.465 1.156l-0.001-0.001c0.295 0.297 0.704 0.481 1.155 0.481s0.86-0.184 1.155-0.48l0-0 14.479-14.433c0.297-0.287 0.481-0.688 0.481-1.132s-0.184-0.846-0.48-1.132l-0-0z"></path>
</symbol>
</defs>
</svg>
