<svg xmlns="http://www.w3.org/2000/svg" width="53" height="53"><defs><style>.cls-1 { fill: #fff; fill-rule: evenodd; }</style></defs><path id="Forma_1" d="M45.24 7.76A26.5 26.5 0 1 0 53 26.5a26.36 26.36 0 0 0-7.76-18.74zm5.52 13.62a1.06 1.06 0 0 0-.1.1L41.5 30.6V6.77a24.97 24.97 0 0 1 9.26 14.6zm-29.2 18.4l-8.35-8.33V20.67l7.5-7.46h10.8l8.37 8.4v10.8l-7.46 7.47H21.6zM39.78 5.6v13.5L22.68 2.02a25.45 25.45 0 0 1 3.8-.3 24.63 24.63 0 0 1 13.3 3.85zM8.98 8.97A24.68 24.68 0 0 1 20.64 2.4l9.08 9.1H6.77a26.22 26.22 0 0 1 2.2-2.53zm-3.4 4.23h12.65L1.9 29.56a25.75 25.75 0 0 1-.18-3.05 24.63 24.63 0 0 1 3.85-13.3zM2.22 31.63a1.06 1.06 0 0 0 .1-.1l9.15-9.14v23.8A24.96 24.96 0 0 1 8.95 44 24.68 24.68 0 0 1 2.2 31.6zm10.97 15.8V33.9L30.3 51a25.45 25.45 0 0 1-3.82.3 24.63 24.63 0 0 1-13.3-3.85zm30.8-3.4a24.62 24.62 0 0 1-11.7 6.57l-9.1-9.1h23a25.07 25.07 0 0 1-2.2 2.52zm3.4-4.23H34.73L51.1 23.44a25.62 25.62 0 0 1 .18 3.05 24.63 24.63 0 0 1-3.85 13.3z" data-name="Forma 1" class="cls-1"/></svg>