<svg xmlns="http://www.w3.org/2000/svg" width="46" height="51"><defs><style>.cls-1 { fill: #fff; fill-rule: evenodd; }</style></defs><path d="M26.01 24.62a.718.718 0 0 0-1.03 0l-1.132 1.17-.035-.04a.718.718 0 0 0-1.03 0 .776.776 0 0 0 0 1.07l.034.03-.034.04a.764.764 0 0 0 0 1.06.713.713 0 0 0 1.03 0l.035-.04.034.04a.713.713 0 0 0 1.03 0 .764.764 0 0 0 0-1.06l-.034-.04 1.133-1.17a.764.764 0 0 0 0-1.06zm-4.326 4.6l-.07-.07a.718.718 0 0 0-1.03 0 .776.776 0 0 0 0 1.07l.07.07a.713.713 0 0 0 1.03 0 .777.777 0 0 0 0-1.07zm-2.2 2.27l-.07-.07a.718.718 0 0 0-1.03 0 .764.764 0 0 0 0 1.06l.07.08a.74.74 0 0 0 .515.22.713.713 0 0 0 .513-.23.765.765 0 0 0 .002-1.06zM44.03 20.53a10.582 10.582 0 0 0-.985-13.48 9.827 9.827 0 0 0-13.073-1.02l-.665-.69a1.485 1.485 0 0 0-2.13 0l-.55.57a1.594 1.594 0 0 0 0 2.2l.77.79a10.68 10.68 0 0 0-1.464 6.53c.016.16.036.32.06.48-.033.03-.064.06-.092.09L5.164 40.53a.76.76 0 0 0 .034 1.02l1.567 1.62a4.92 4.92 0 0 0-2.33 3.18c-.038.12-.078.24-.118.36-.37 1.13-.753 2.31-1.663 2.7a1.21 1.21 0 0 1-.878 0 .69.69 0 0 1-.375-.35.723.723 0 0 0-.952-.41.76.76 0 0 0-.4.98 2.136 2.136 0 0 0 1.167 1.17 2.6 2.6 0 0 0 2 0c1.515-.66 2.05-2.3 2.48-3.61.038-.12.076-.23.114-.35.314-.94.79-2.05 1.652-2.33a.77.77 0 0 0 .35-.25l1.777 1.83a.713.713 0 0 0 1 .03l23.777-21.39a1.333 1.333 0 0 0 .09-.1 9.4 9.4 0 0 0 1.5.12 9.812 9.812 0 0 0 5.292-1.56l.77.79a1.484 1.484 0 0 0 2.13 0l.55-.57a1.582 1.582 0 0 0 0-2.19zM42.014 8.11a9.047 9.047 0 0 1 .97 11.34L31.014 7.11a8.394 8.394 0 0 1 11.003 1zM10.14 44.53l-3.43-3.54 4.672-5.53 4.118 4.25zm6.458-5.81l-4.258-4.39 14.07-16.64a10.377 10.377 0 0 0 2.416 4.02 9.883 9.883 0 0 0 3.9 2.49zm27.065-16.37l-.55.57a.047.047 0 0 1-.068 0l-9.892-10.21a.718.718 0 0 0-1.03 0 .776.776 0 0 0 0 1.07l8.06 8.31a8.428 8.428 0 0 1-10.327-1.44 9.126 9.126 0 0 1-1.4-10.65l1.465 1.51a.718.718 0 0 0 1.03 0 .764.764 0 0 0 0-1.06l-3.3-3.4a.063.063 0 0 1 0-.08l.55-.56a.04.04 0 0 1 .07 0l15.387 15.87a.038.038 0 0 1 .014.04.03.03 0 0 1-.004.03zm-20.4-19.14a2.427 2.427 0 0 1-2.38-2.46.73.73 0 1 0-1.457 0 2.428 2.428 0 0 1-2.38 2.46.75.75 0 0 0 0 1.5 2.42 2.42 0 0 1 2.38 2.45.73.73 0 1 0 1.457 0 2.42 2.42 0 0 1 2.38-2.45.75.75 0 0 0 .002-1.5zm-3.11 1.64a3.647 3.647 0 0 0-.86-.89 4.04 4.04 0 0 0 .86-.89 4.04 4.04 0 0 0 .862.89 3.647 3.647 0 0 0-.86.89zm19.43 29.62a2.42 2.42 0 0 1-2.38-2.45.73.73 0 1 0-1.457 0 2.42 2.42 0 0 1-2.38 2.45.755.755 0 0 0 0 1.51 2.42 2.42 0 0 1 2.38 2.45.73.73 0 1 0 1.457 0 2.42 2.42 0 0 1 2.38-2.45.756.756 0 0 0 .002-1.51zm-3.11 1.64a4.018 4.018 0 0 0-.86-.89 3.768 3.768 0 0 0 .86-.88 3.772 3.772 0 0 0 .863.88 4.022 4.022 0 0 0-.86.89zM8.5 24.05a2.42 2.42 0 0 1-2.38-2.46.73.73 0 1 0-1.458 0 2.42 2.42 0 0 1-2.38 2.46.75.75 0 0 0 0 1.5 2.42 2.42 0 0 1 2.38 2.46.73.73 0 1 0 1.458 0 2.42 2.42 0 0 1 2.38-2.46.75.75 0 0 0 0-1.5zm-3.11 1.64a.89.89 0 0 1 0-1.78.89.89 0 0 1 0 1.78z" class="cls-1"/></svg>