<svg xmlns="http://www.w3.org/2000/svg" width="53" height="53"><defs><style>.cls-1 { fill: #fff; fill-rule: evenodd; }</style></defs><path d="M9.912 42.71h12.706a.843.843 0 0 0 .836-.85v-4a6.14 6.14 0 0 0-3.834-5.9l-2.79-1.16-1.878-1.24v-.46a5.577 5.577 0 0 0 2.792-3.86 2.712 2.712 0 0 0 2.22-2.66 2.684 2.684 0 0 0-.7-1.81v-2.64a7.227 7.227 0 0 0-7.218-7.22h-.532a7.228 7.228 0 0 0-7.218 7.22v2.65a2.7 2.7 0 0 0 1.535 4.46 5.574 5.574 0 0 0 2.8 3.86v.41l-1.89 1.24-.07.03-2.83 1.18A6.14 6.14 0 0 0 0 37.86v4.01a.84.84 0 0 0 .835.84h5.492a.84.84 0 0 0 0-1.68h-.81v-3.35a.836.836 0 1 0-1.67 0v3.35h-2.18v-3.17a4.41 4.41 0 0 1 2.725-4.32.127.127 0 0 1 .055-.02l2.02-.85 2.346 8.39a.825.825 0 0 0-.65.81.84.84 0 0 0 .836.84h.9zm7.925-20.99a1.04 1.04 0 0 1 .454.86 1.022 1.022 0 0 1-.45.85v-1.71zm-12.1 1.71a1.024 1.024 0 0 1-.453-.85 1.042 1.042 0 0 1 .453-.86v1.71zM9.69 37.98l-.45-1.6a.8.8 0 0 0 .2-.11l.257-.19.216.52zm1.2 3.05l.6-3.7h.592l.6 3.7H10.9zm.862-8.7l-1.46-1.42v-1.22a6.32 6.32 0 0 0 .982.09h1.02a6.3 6.3 0 0 0 .98-.09v1.06zm.678 2.75l-.218.58h-.88l-.25-.6.664-.49zM13.88 38l-.228-1.42.178-.47.222.16a.748.748 0 0 0 .277.13zm3.216-5.28l1.9.8c.015 0 .035.01.05.01a4.437 4.437 0 0 1 2.73 4.33v3.17H19.6v-3.35a.836.836 0 1 0-1.67 0v3.35h-3.16zm-1.67-.84l-1.19 2.45-.287-.21-.94-.69 1.7-1.76a1.11 1.11 0 0 0 .13-.18zm-8.85-12.49h-.09a.023.023 0 0 1-.022.01.13.13 0 0 0-.06.01h-.03c-.016.01-.034.01-.05.02s-.024.01-.035.01-.03.01-.05.02-.03.01-.04.01a.065.065 0 0 1-.04.02.077.077 0 0 1-.04.02.053.053 0 0 1-.03.02l-.04.03c-.01.01-.02.01-.03.02l-.03.03a.054.054 0 0 1-.03.02.034.034 0 0 1-.015.02v-1.52a5.555 5.555 0 0 1 5.546-5.55h.533a5.554 5.554 0 0 1 5.542 5.55v1.51c-.01-.01-.016-.01-.023-.02l-.033-.03a.046.046 0 0 0-.03-.02l-.033-.03c-.01-.01-.02-.01-.03-.02a.066.066 0 0 0-.038-.02.073.073 0 0 0-.04-.02c-.01-.01-.02-.01-.03-.02s-.036-.01-.05-.02a.033.033 0 0 1-.03-.01c-.016 0-.035-.01-.053-.01s-.014-.01-.02-.01c-1.735-.39-2.28-2.64-2.285-2.66a.837.837 0 0 0-.65-.64.823.823 0 0 0-.846.33c-2.1 2.92-6.76 2.95-6.82 2.95zm.832 4.84v-3.21a11.108 11.108 0 0 0 6.384-2.52 4.79 4.79 0 0 0 2.367 2.33v3.4a3.868 3.868 0 0 1-3.87 3.87h-1.02a3.868 3.868 0 0 1-3.86-3.87zm.66 7.65l.586-.39a.84.84 0 0 0 .22.37l1.607 1.57-1.22.9zm1.455-23.5a24.778 24.778 0 0 1 32.485-1.24H40.66a.84.84 0 0 0-.836.84.832.832 0 0 0 .836.83h3.343a.832.832 0 0 0 .836-.83V4.96a.836.836 0 0 0-1.68 0v.96A26.482 26.482 0 0 0 8.38 7.15a.842.842 0 0 0 1.15 1.23zm33.234 36.85A24.782 24.782 0 0 1 11.6 46.37H13a.84.84 0 0 0 0-1.68H9.658a.84.84 0 0 0-.836.84v3.01a.836.836 0 1 0 1.672 0v-.92a26.473 26.473 0 0 0 33.372-1.12.84.84 0 0 0-1.103-1.27zm6.4-13.27l-2.79-1.16-1.878-1.24v-.46a5.58 5.58 0 0 0 2.79-3.86 2.7 2.7 0 0 0 1.52-4.47v-2.64a7.228 7.228 0 0 0-7.22-7.22h-.53a7.227 7.227 0 0 0-7.22 7.22v2.65a2.7 2.7 0 0 0 1.53 4.46 5.58 5.58 0 0 0 2.79 3.86v.41l-1.89 1.24-.076.03-2.834 1.18a6.14 6.14 0 0 0-3.834 5.9v4.01a.84.84 0 0 0 .837.84h5.49a.84.84 0 0 0 0-1.68h-.806v-3.35a.837.837 0 1 0-1.673 0v3.35H31.2v-3.17a4.41 4.41 0 0 1 2.72-4.32.13.13 0 0 1 .058-.02l2.02-.85 2.346 8.39a.825.825 0 0 0-.65.81.84.84 0 0 0 .833.84h13.62a.843.843 0 0 0 .837-.85v-4a6.14 6.14 0 0 0-3.824-5.9zm-1.783-10.24a1.042 1.042 0 0 1 .453.86 1.024 1.024 0 0 1-.453.85v-1.71zm-12.1 1.71a1.022 1.022 0 0 1-.454-.85 1.04 1.04 0 0 1 .454-.86v1.71zm.84-4.04h-.09a.024.024 0 0 1-.02.01.13.13 0 0 0-.062.01h-.028c-.018.01-.035.01-.052.02s-.023.01-.035.01-.028.01-.042.02-.026.01-.038.01a.067.067 0 0 1-.035.02.07.07 0 0 1-.038.02.055.055 0 0 1-.03.02l-.036.03c-.01.01-.02.01-.03.02l-.03.03a.05.05 0 0 1-.028.02.04.04 0 0 1-.015.02v-1.52a5.554 5.554 0 0 1 5.545-5.55h.55a5.554 5.554 0 0 1 5.545 5.55v1.51c-.006-.01-.014-.01-.02-.02l-.033-.03a.05.05 0 0 0-.028-.02l-.036-.03c-.01-.01-.02-.01-.03-.02a.066.066 0 0 0-.037-.02.073.073 0 0 0-.03-.02c-.01-.01-.02-.01-.03-.02s-.03-.01-.05-.02a.035.035 0 0 1-.02-.01c-.02 0-.034-.01-.053-.01s-.012-.01-.02-.01c-1.734-.39-2.28-2.64-2.284-2.66a.834.834 0 0 0-.65-.64.822.822 0 0 0-.843.33c-2.12 2.92-6.77 2.95-6.835 2.95zm.833 4.84v-3.21a11.11 11.11 0 0 0 6.384-2.52 4.79 4.79 0 0 0 2.37 2.33v3.4a3.868 3.868 0 0 1-3.86 3.87h-1.02a3.867 3.867 0 0 1-3.85-3.87zm3.674 10.83l.67-.49.69.51-.22.58h-.88zm.67-2.73l-1.45-1.42v-1.22a6.3 6.3 0 0 0 .98.09h1.02a6.308 6.308 0 0 0 .98-.09v1.06zm-2.06 5.65l-.45-1.6a.84.84 0 0 0 .2-.11l.26-.19.22.52zm-.43-3.65l-1.19-2.45.59-.39a.83.83 0 0 0 .22.37l1.61 1.57zm1.63 6.7l.6-3.7h.59l.6 3.7h-1.78zm3.82-9.36a1.166 1.166 0 0 0 .13-.18l.59.39-1.19 2.45-.28-.21-.93-.69zM43.42 38l-.23-1.42.178-.47.223.16a.74.74 0 0 0 .28.13zm7.894 3.03H49.14v-3.35a.837.837 0 1 0-1.673 0v3.35h-3.16l2.327-8.31 1.9.8c.015 0 .035.01.05.01a4.438 4.438 0 0 1 2.73 4.33v3.17z" class="cls-1"/></svg>