<svg xmlns="http://www.w3.org/2000/svg" width="51" height="43"><defs><style>.cls-1 { fill: #fff; fill-rule: evenodd; }</style></defs><path id="Forma_1" d="M17.32 21.06a3.3 3.3 0 1 1-3.23 3.3 3.26 3.26 0 0 1 3.2-3.3zm31.43 2.65l2.2-17.6L35.25 0 16.4 9.2 0 2.1l2.2 18.8L.1 39.43l17.43 3.34L35.3 39.3 51 43zM35.18 1.9l13.9 5.35-.95 7.7-13.86-3.58zm-1.84.97l-.73 8.07L23 12.2l-.05.2a31 31 0 0 1-2.3 6.16 6.5 6.5 0 0 0-2.52-.88l-.78-7.02zm-1.46 18l-8.35 1.28a6.8 6.8 0 0 0-2.34-3.2 29.43 29.43 0 0 0 2.3-6.14l9-1.2zm-16.24-10.1l.77 6.95a6.65 6.65 0 0 0-5.3 4.6L3.98 21.2l-.68-6.74a7.04 7.04 0 0 0 5.2-2.36 6.6 6.6 0 0 0 1.37-3.86zm-13.6-5.9l7.18 3.1A6.05 6.05 0 0 1 8 11.67a6.45 6.45 0 0 1-4.84 2.1zm-.08 33.16l1.76-15.1 7.02 1.1-.02.35a6.75 6.75 0 0 0 1.43 4.17l-3.64 3-1.1 7.53zm13.74 2.64L8 39.17l1.12-7.3 3.46-2.84a6.56 6.56 0 0 0 4.1 2.03zm-3.67-16.3a5.3 5.3 0 1 1 5.3 5.4 5.36 5.36 0 0 1-5.3-5.4zM17.53 41l-.16-.03L18.4 31a6.7 6.7 0 0 0 5.5-6.65v-.53l8.14-1.26.68 7.1c-3.58.18-6.25 1.3-7.93 3.37a10.07 10.07 0 0 0-2 6.93zm5.96-1.16a9.45 9.45 0 0 1 1.8-6.38c1.5-1.93 4-2.97 7.4-3.13l.7 7.56zM34.2 12l13.85 3.6-.83 6.67-13.67-1.7zm11.14 16.03l-6.3-.76 1.15 11.4-5.1-1.1-1.4-15.27h.1L47 24l2 16.76-8.17-1.93-1.08-10.8 5.62.67z" data-name="Forma 1" class="cls-1"/></svg>