<svg xmlns="http://www.w3.org/2000/svg" width="40" height="50"><defs><style>.cls-1 { fill: #fff; fill-rule: evenodd; }</style></defs><path d="M38.6 17.85a.806.806 0 0 0 .8-.81V3.4A3.4 3.4 0 0 0 36.018 0H3.382A3.4 3.4 0 0 0 0 3.4v43.2A3.4 3.4 0 0 0 3.382 50h32.645a3.4 3.4 0 0 0 3.382-3.4V30.96a.806.806 0 1 0-1.614 0V46.6a1.778 1.778 0 0 1-1.77 1.78H3.38a1.78 1.78 0 0 1-1.77-1.78V3.4a1.78 1.78 0 0 1 1.772-1.78h32.645a1.778 1.778 0 0 1 1.77 1.78v13.64a.806.806 0 0 0 .803.81zM21.42 3.45h-3.44a.81.81 0 0 0 0 1.62h3.437a.81.81 0 0 0 .003-1.62zm-6.874.01a.81.81 0 1 0 .806.81v-.01a.8.8 0 0 0-.802-.8zm6.873 41.46h-3.44a.81.81 0 0 0 0 1.62h3.436a.81.81 0 0 0 .003-1.62zm13.74-27.07a.806.806 0 0 0 .806-.81V7.72a.806.806 0 0 0-.807-.81H4.24a.806.806 0 0 0-.8.81v34.56a.806.806 0 0 0 .8.81h30.927a.806.806 0 0 0 .806-.81V30.96a.806.806 0 1 0-1.61 0v10.51H5.045V8.53H34.36v8.51a.806.806 0 0 0 .806.81zm-9.45 17.57h-6.87a.81.81 0 0 0 0 1.62h6.874a.81.81 0 0 0 .004-1.62zm-10.308 0h-1.718a.81.81 0 0 0 0 1.62h1.718a.81.81 0 0 0 .004-1.62zm4.295-21.6a4.265 4.265 0 1 0 4.24 4.27 4.264 4.264 0 0 0-4.24-4.27zm0 6.91a2.645 2.645 0 1 1 2.63-2.64 2.635 2.635 0 0 1-2.63 2.64zm4.22 3.21a1.685 1.685 0 0 0-2.29.24 2.58 2.58 0 0 1-3.863 0 1.685 1.685 0 0 0-2.29-.24 6.828 6.828 0 0 0-2.6 5.38v2.59a.806.806 0 0 0 .806.81h12.03a.806.806 0 0 0 .806-.81v-2.59a6.828 6.828 0 0 0-2.59-5.38zm.988 7.16H14.5v-1.78a5.23 5.23 0 0 1 1.98-4.11.15.15 0 0 1 .1.06 4.2 4.2 0 0 0 6.26 0 .157.157 0 0 1 .092-.06 5.22 5.22 0 0 1 1.985 4.11v1.78zM35.88 20a4.094 4.094 0 0 0-4.12 4.06 3.924 3.924 0 0 0 .267 1.43l-3.94 3.88a.3.3 0 0 0-.087.21v2.12a.3.3 0 0 0 .3.3h1.777a.29.29 0 0 0 .212-.09l.6-.58a.316.316 0 0 0 .085-.21v-.73h.735a.3.3 0 0 0 .3-.29v-.29h.29a.3.3 0 0 0 .3-.3v-.63h.645a.334.334 0 0 0 .213-.09l.954-.94a4.252 4.252 0 0 0 1.462.26A4.056 4.056 0 1 0 35.88 20zm0 7.52a3.59 3.59 0 0 1-1.413-.29.306.306 0 0 0-.33.06l-1.008.99h-.83a.3.3 0 0 0-.3.3v.64h-.29a.3.3 0 0 0-.3.29v.29h-.736a.3.3 0 0 0-.3.3v.89l-.423.42H28.6v-.42l3.67-3.61a.267.267 0 0 0 0-.38.28.28 0 0 0-.383 0L28.6 30.24v-.54l3.992-3.93a.285.285 0 0 0 .06-.32 3.4 3.4 0 0 1-.294-1.39 3.52 3.52 0 1 1 3.522 3.46zm1.254-5.81a1.11 1.11 0 1 0 1.125 1.11 1.12 1.12 0 0 0-1.128-1.11zm0 1.63a.515.515 0 1 1 .524-.52.52.52 0 0 1-.524.52z" class="cls-1"/></svg>