<svg xmlns="http://www.w3.org/2000/svg" width="57" height="45"><defs><style>.cls-1 { fill: #fff; fill-rule: evenodd; }</style></defs><path d="M13.79 18.29H5.62a.91.91 0 1 0 0 1.82h8.17a.91.91 0 1 0 0-1.82zm.79-3.02H6.41a.915.915 0 0 0 0 1.83h8.17a.915.915 0 0 0 0-1.83zm0 6.04H6.41a.91.91 0 0 0 0 1.82h8.17a.91.91 0 0 0 0-1.82zM53.53 5.79C51.21 2.05 48.08 0 44.72 0a8.933 8.933 0 0 0-5.68 2.14 101.71 101.71 0 0 1-27.95 5.37 11.712 11.712 0 0 0-.73 23.33v8.89a5.235 5.235 0 1 0 10.47 0v-1.38a5.99 5.99 0 0 0 5.15-5.61 100.627 100.627 0 0 1 13.06 3.53 8.933 8.933 0 0 0 5.68 2.14c3.36 0 6.49-2.06 8.81-5.79a27.666 27.666 0 0 0 0-26.83zM19.02 39.73a3.42 3.42 0 1 1-6.84 0v-8.78l.81.06h.05l.82.06h.04c1.7.13 3.42.31 5.12.53v8.13zm5.16-7.32a4.184 4.184 0 0 1-3.35 4.1v-4.66c1.12.17 2.24.35 3.35.55v.01zm-11.74-3.27h-.06c-.4-.02-.8-.05-1.21-.07a9.884 9.884 0 0 1 0-19.74A103.25 103.25 0 0 0 36.5 4.88a19.223 19.223 0 0 0-1.39 2.3c0 .01 0 .02-.01.02a27.306 27.306 0 0 0-2.32 16.56 24.87 24.87 0 0 0 2.32 7.44.037.037 0 0 1 .01.03 18.328 18.328 0 0 0 1.39 2.29 103.9 103.9 0 0 0-24.06-4.38zm39.55 2.51c-1.97 3.18-4.56 4.93-7.27 4.93a7.214 7.214 0 0 1-4.58-1.76l-.06-.06a12.02 12.02 0 0 1-.98-.92c-.08-.09-.16-.18-.25-.27a14.022 14.022 0 0 1-1.41-1.92c-4.42-7.09-4.42-17.79 0-24.9a14.312 14.312 0 0 1 1.41-1.91 10.57 10.57 0 0 1 1.23-1.19l.06-.06a7.172 7.172 0 0 1 4.58-1.77c2.71 0 5.3 1.75 7.27 4.93a25.82 25.82 0 0 1 0 24.9zM49.37 9.47c-1.33-2.5-3.07-4-4.65-4s-3.33 1.5-4.66 4a18.33 18.33 0 0 0-1.69 4.81.235.235 0 0 1-.02.08 24.27 24.27 0 0 0 0 9.68.292.292 0 0 1 .02.09 18.258 18.258 0 0 0 1.69 4.8c1.33 2.51 3.07 4.01 4.66 4.01s3.32-1.5 4.65-4.01a22.71 22.71 0 0 0 0-19.46zm-9.38 13.48a24.138 24.138 0 0 1-.28-2.59c0-.1-.01-.21-.01-.31 0-.08-.01-.16-.01-.24 0-.2-.01-.4-.01-.6v-.01c0-.21.01-.41.01-.6 0-.08.01-.16.01-.24 0-.11.01-.21.01-.32a23.95 23.95 0 0 1 .28-2.58h2.36a9.14 9.14 0 0 0-.38 6.51 8.87 8.87 0 0 0 .36.98c-.23-.01-2.33.06-2.34 0zm4.73 8.16c-1.06 0-3.23-2.19-4.34-6.34h4.34c1.79 0 3.15-2.39 3.15-5.57s-1.36-5.56-3.15-5.56h-4.34c1.11-4.15 3.28-6.35 4.34-6.35 1.46 0 5.03 4.18 5.03 11.91s-3.57 11.91-5.03 11.91zM43.38 19.2c0-2.61 1.01-3.74 1.34-3.74.32 0 1.33 1.13 1.33 3.74s-1.01 3.75-1.33 3.75-1.34-1.13-1.34-3.75z" class="cls-1"/></svg>